<mxfile host="app.diagrams.net" modified="2023-11-02T10:58:46.661Z" agent="Mozilla/5.0 (Windows NT 10.0; Win64; x64; rv:109.0) Gecko/20100101 Firefox/119.0" etag="7MzML9JyRv_2cHCbpuOa" version="21.2.3" type="device">
  <diagram name="Sivu-1" id="imtBNOdBlKNwLJ3VMUrw">
    <mxGraphModel dx="1434" dy="894" grid="1" gridSize="10" guides="1" tooltips="1" connect="1" arrows="1" fold="1" page="1" pageScale="1" pageWidth="827" pageHeight="1169" math="0" shadow="0">
      <root>
        <mxCell id="0" />
        <mxCell id="1" parent="0" />
        <mxCell id="qxj9CKPQpSzjlY7T7_1T-1" value="internet" style="ellipse;shape=cloud;whiteSpace=wrap;html=1;" vertex="1" parent="1">
          <mxGeometry x="340" y="280" width="120" height="80" as="geometry" />
        </mxCell>
        <mxCell id="qxj9CKPQpSzjlY7T7_1T-2" value="&lt;div&gt;Rasperry pi&lt;/div&gt;&lt;div&gt;router&lt;br&gt;&lt;/div&gt;" style="shape=cylinder3;whiteSpace=wrap;html=1;boundedLbl=1;backgroundOutline=1;size=15;" vertex="1" parent="1">
          <mxGeometry x="151" y="180" width="90" height="90" as="geometry" />
        </mxCell>
        <mxCell id="qxj9CKPQpSzjlY7T7_1T-3" value="database" style="shape=datastore;whiteSpace=wrap;html=1;" vertex="1" parent="1">
          <mxGeometry x="570" y="180" width="80" height="80" as="geometry" />
        </mxCell>
        <mxCell id="qxj9CKPQpSzjlY7T7_1T-4" value="&lt;div&gt;nordic nrf5340&lt;/div&gt;&lt;div&gt;with accerometer&lt;br&gt;&lt;/div&gt;" style="shape=cube;whiteSpace=wrap;html=1;boundedLbl=1;backgroundOutline=1;darkOpacity=0.05;darkOpacity2=0.1;size=10;" vertex="1" parent="1">
          <mxGeometry x="110" y="460" width="120" height="80" as="geometry" />
        </mxCell>
        <mxCell id="qxj9CKPQpSzjlY7T7_1T-5" value="laptop" style="image;points=[];aspect=fixed;html=1;align=center;shadow=0;dashed=0;image=img/lib/allied_telesis/computer_and_terminals/Laptop.svg;" vertex="1" parent="1">
          <mxGeometry x="310" y="460" width="88.73" height="90" as="geometry" />
        </mxCell>
        <mxCell id="qxj9CKPQpSzjlY7T7_1T-8" value="TCP socket server" style="image;points=[];aspect=fixed;html=1;align=center;shadow=0;dashed=0;image=img/lib/allied_telesis/computer_and_terminals/Server_Desktop.svg;" vertex="1" parent="1">
          <mxGeometry x="600" y="380" width="74.16" height="94" as="geometry" />
        </mxCell>
        <mxCell id="qxj9CKPQpSzjlY7T7_1T-10" value="" style="endArrow=none;html=1;rounded=0;" edge="1" parent="1" source="qxj9CKPQpSzjlY7T7_1T-2" target="qxj9CKPQpSzjlY7T7_1T-1">
          <mxGeometry width="50" height="50" relative="1" as="geometry">
            <mxPoint x="230" y="290" as="sourcePoint" />
            <mxPoint x="280" y="240" as="targetPoint" />
          </mxGeometry>
        </mxCell>
        <mxCell id="qxj9CKPQpSzjlY7T7_1T-11" value="" style="endArrow=none;html=1;rounded=0;entryX=0.15;entryY=0.95;entryDx=0;entryDy=0;entryPerimeter=0;" edge="1" parent="1" source="qxj9CKPQpSzjlY7T7_1T-1" target="qxj9CKPQpSzjlY7T7_1T-3">
          <mxGeometry width="50" height="50" relative="1" as="geometry">
            <mxPoint x="570" y="270" as="sourcePoint" />
            <mxPoint x="510" y="270" as="targetPoint" />
          </mxGeometry>
        </mxCell>
        <mxCell id="qxj9CKPQpSzjlY7T7_1T-12" value="" style="endArrow=none;html=1;rounded=0;exitX=0.9;exitY=0.725;exitDx=0;exitDy=0;exitPerimeter=0;" edge="1" parent="1" source="qxj9CKPQpSzjlY7T7_1T-1" target="qxj9CKPQpSzjlY7T7_1T-8">
          <mxGeometry width="50" height="50" relative="1" as="geometry">
            <mxPoint x="520" y="420" as="sourcePoint" />
            <mxPoint x="570" y="370" as="targetPoint" />
          </mxGeometry>
        </mxCell>
        <mxCell id="qxj9CKPQpSzjlY7T7_1T-13" value="" style="endArrow=none;html=1;rounded=0;" edge="1" parent="1" source="qxj9CKPQpSzjlY7T7_1T-5" target="qxj9CKPQpSzjlY7T7_1T-1">
          <mxGeometry width="50" height="50" relative="1" as="geometry">
            <mxPoint x="380" y="450" as="sourcePoint" />
            <mxPoint x="430" y="400" as="targetPoint" />
          </mxGeometry>
        </mxCell>
        <mxCell id="qxj9CKPQpSzjlY7T7_1T-14" value="" style="endArrow=none;dashed=1;html=1;dashPattern=1 3;strokeWidth=2;rounded=0;exitX=0;exitY=0;exitDx=55;exitDy=0;exitPerimeter=0;" edge="1" parent="1" source="qxj9CKPQpSzjlY7T7_1T-4" target="qxj9CKPQpSzjlY7T7_1T-2">
          <mxGeometry width="50" height="50" relative="1" as="geometry">
            <mxPoint x="160" y="380" as="sourcePoint" />
            <mxPoint x="210" y="330" as="targetPoint" />
          </mxGeometry>
        </mxCell>
        <mxCell id="qxj9CKPQpSzjlY7T7_1T-16" value="" style="curved=1;endArrow=classic;html=1;rounded=0;" edge="1" parent="1" source="qxj9CKPQpSzjlY7T7_1T-5" target="qxj9CKPQpSzjlY7T7_1T-4">
          <mxGeometry width="50" height="50" relative="1" as="geometry">
            <mxPoint x="240" y="530" as="sourcePoint" />
            <mxPoint x="290" y="480" as="targetPoint" />
            <Array as="points">
              <mxPoint x="290" y="530" />
              <mxPoint x="280" y="490" />
              <mxPoint x="240" y="480" />
            </Array>
          </mxGeometry>
        </mxCell>
      </root>
    </mxGraphModel>
  </diagram>
</mxfile>
